<svg width="180" height="60" viewBox="0 0 180 60" fill="none" xmlns="http://www.w3.org/2000/svg">
<path d="M18.0833 33.2563L30.1734 50.3348V41.8129L18.0833 33.2563Z" fill="url(#paint0_linear_1939_111)"/>
<path d="M30.1734 50.3348L41.8824 33.2563L30.1734 41.8129V50.3348Z" fill="url(#paint1_linear_1939_111)"/>
<path d="M30.1734 39.5611L41.8824 31.6974L30.1734 25.4618V39.5611Z" fill="url(#paint2_linear_1939_111)"/>
<path d="M18.0833 31.6974L30.1734 39.5611V25.4618L18.0833 31.6974Z" fill="url(#paint3_linear_1939_111)"/>
<path d="M41.8824 31.6974L30.1734 9.69971V25.4618L41.8824 31.6974Z" fill="url(#paint4_linear_1939_111)"/>
<path d="M30.1734 9.69971L18.0833 31.6974L30.1734 25.4618V9.69971Z" fill="url(#paint5_linear_1939_111)"/>
<mask id="mask0_1939_111" style="mask-type:alpha" maskUnits="userSpaceOnUse" x="18" y="9" width="24" height="42">
<path d="M18.0833 33.2563L30.1734 50.3348V41.8129L18.0833 33.2563Z" fill="url(#paint6_linear_1939_111)"/>
<path d="M30.1734 50.3348L41.8824 33.2563L30.1734 41.8129V50.3348Z" fill="url(#paint7_linear_1939_111)"/>
<path d="M30.1734 39.5611L41.8824 31.6974L30.1734 25.4618V39.5611Z" fill="url(#paint8_linear_1939_111)"/>
<path d="M18.0833 31.6974L30.1734 39.5611V25.4618L18.0833 31.6974Z" fill="url(#paint9_linear_1939_111)"/>
<path d="M41.8824 31.6974L30.1734 9.69971V25.4618L41.8824 31.6974Z" fill="url(#paint10_linear_1939_111)"/>
<path d="M30.1734 9.69971L18.0833 31.6974L30.1734 25.4618V9.69971Z" fill="url(#paint11_linear_1939_111)"/>
</mask>
<g mask="url(#mask0_1939_111)">
<path d="M30.1734 9.69971V25.4618M30.1734 25.4618L18.0833 31.6974M30.1734 25.4618V39.5611M30.1734 25.4618L41.8824 31.6974M30.1734 41.6581V50.3348" stroke="white" stroke-width="0.346621"/>
</g>
<mask id="mask1_1939_111" style="mask-type:alpha" maskUnits="userSpaceOnUse" x="0" y="0" width="60" height="60">
<path d="M60 30C60 46.5685 46.5685 60 30 60C13.4315 60 0 46.5685 0 30C0 13.4315 13.4315 0 30 0C46.5685 0 60 13.4315 60 30ZM5.91509 30C5.91509 43.3017 16.6983 54.0849 30 54.0849C43.3017 54.0849 54.0849 43.3017 54.0849 30C54.0849 16.6983 43.3017 5.91509 30 5.91509C16.6983 5.91509 5.91509 16.6983 5.91509 30Z" fill="#D9D9D9"/>
</mask>
<g mask="url(#mask1_1939_111)">
<g filter="url(#filter0_f_1939_111)">
<circle cx="16.6975" cy="12.5404" r="16.6975" fill="#B027C7"/>
</g>
<g filter="url(#filter1_f_1939_111)">
<circle cx="36.3048" cy="12.5404" r="16.6975" fill="#FF0084"/>
</g>
<g filter="url(#filter2_f_1939_111)">
<circle cx="52.2399" cy="25.4273" r="16.6975" fill="#FDCB47"/>
</g>
<g filter="url(#filter3_f_1939_111)">
<circle cx="55.6349" cy="45.381" r="16.6975" fill="#FBA131"/>
</g>
<g filter="url(#filter4_f_1939_111)">
<circle cx="35.1267" cy="52.3095" r="16.6975" fill="#106671"/>
</g>
<g filter="url(#filter5_f_1939_111)">
<ellipse cx="21.7555" cy="52.7252" rx="16.9053" ry="13.7875" fill="#1191B1"/>
</g>
<g filter="url(#filter6_f_1939_111)">
<circle cx="5.1963" cy="39.4919" r="16.6975" fill="#154A43"/>
</g>
<g filter="url(#filter7_f_1939_111)">
<ellipse cx="7.69047" cy="23.5566" rx="16.6975" ry="12.5404" fill="#19A272"/>
</g>
<g filter="url(#filter8_f_1939_111)">
<ellipse cx="7.69047" cy="13.8568" rx="16.6975" ry="12.5404" fill="#19A272"/>
</g>
</g>
<path d="M77.4575 36.5226C78.2123 36.5297 78.9641 36.4211 79.6887 36.2003C80.3202 36.0009 80.911 35.6817 81.4313 35.2588C81.9098 34.8545 82.2964 34.3447 82.5632 33.7661C82.8341 33.1306 82.9728 32.4427 82.9703 31.7475C82.9789 31.1404 82.871 30.5377 82.6527 29.9748C82.4344 29.4745 82.1117 29.0312 81.7081 28.6771C81.2417 28.2782 80.7201 27.9551 80.161 27.7187C79.4637 27.4243 78.7448 27.1888 78.0112 27.0147C77.2702 26.8281 76.6676 26.65 76.1871 26.4804C75.7951 26.3484 75.4203 26.166 75.0715 25.9376C74.8313 25.7838 74.6368 25.5636 74.5097 25.3015C74.3899 25.0368 74.334 24.7456 74.3468 24.4533C74.3449 24.0978 74.4503 23.7507 74.6481 23.461C74.8669 23.1488 75.1662 22.9077 75.5113 22.7655C75.9394 22.5811 76.3998 22.4916 76.863 22.5026C77.5826 22.5061 78.2952 22.65 78.9639 22.9266C79.7121 23.2297 80.4143 23.6439 81.0485 24.1565L82.4817 22.0191C81.7194 21.3773 80.8611 20.8701 79.9411 20.5179C78.9564 20.1644 77.9208 19.9894 76.8793 20.0005C76.1632 19.9921 75.4506 20.1067 74.7702 20.3398C74.1753 20.5519 73.6231 20.8768 73.1416 21.2982C72.6753 21.6882 72.2972 22.1805 72.0342 22.74C71.7693 23.332 71.6357 23.9784 71.6433 24.6314C71.6261 25.2856 71.7427 25.9361 71.9853 26.5398C72.2054 27.0625 72.5468 27.5201 72.9788 27.8714C73.4737 28.2613 74.0229 28.5702 74.6074 28.7874C75.3162 29.0816 76.0424 29.3281 76.7816 29.5253C77.3745 29.6616 77.9591 29.8343 78.5323 30.0427C78.9093 30.1777 79.2678 30.363 79.5991 30.594C79.824 30.7563 80.0061 30.9751 80.1284 31.2301C80.2226 31.4754 80.2696 31.7377 80.2668 32.0019C80.2709 32.3944 80.1539 32.778 79.9329 33.096C79.6857 33.418 79.3592 33.6643 78.9884 33.8085C78.5223 33.9885 78.0277 34.0748 77.5307 34.0629C76.9283 34.066 76.3283 33.9833 75.7474 33.8169C75.1777 33.6562 74.6304 33.4196 74.1188 33.113C73.5911 32.7803 73.0924 32.4 72.6286 31.9765L71 33.9951C72.7622 35.6533 75.0582 36.5615 77.433 36.5395L77.4575 36.5226ZM85.853 39.9661H88.5157V34.4107C88.7929 34.8014 89.1157 35.1547 89.4766 35.4624C89.8645 35.7942 90.3019 36.0577 90.7714 36.2427C91.3142 36.4479 91.8877 36.5513 92.4651 36.548C93.0183 36.5469 93.5679 36.4553 94.0937 36.2766C94.6208 36.0975 95.1181 35.8343 95.5676 35.4963C96.0365 35.1407 96.4441 34.7048 96.7728 34.2071C97.1339 33.6718 97.4089 33.0788 97.5871 32.4514C97.789 31.7411 97.8905 31.004 97.8884 30.2632C97.8912 29.5112 97.7897 28.7628 97.5871 28.041C97.4056 27.4124 97.1308 26.8171 96.7728 26.2768C96.4373 25.785 96.0308 25.3501 95.5676 24.9877C95.1168 24.6427 94.6166 24.3737 94.0856 24.1904C93.5586 24.0176 93.0095 23.929 92.457 23.9275C91.9006 23.9222 91.3481 24.0258 90.8284 24.2328C90.3535 24.4365 89.9156 24.7234 89.5336 25.0809C89.1586 25.4219 88.825 25.8093 88.5402 26.2344V24.2074H85.853V40V39.9661ZM91.8463 34.1392C91.4028 34.1399 90.9639 34.0461 90.5564 33.8638C90.1489 33.6815 89.7815 33.4145 89.4766 33.0791C89.1506 32.7285 88.8958 32.3131 88.7275 31.8577C88.5444 31.3477 88.4506 30.8077 88.4506 30.2632C88.4499 29.7131 88.5437 29.1674 88.7275 28.6517C88.8939 28.1902 89.1488 27.7689 89.4766 27.4134C89.9276 26.899 90.5196 26.5417 91.1722 26.39C91.8249 26.2383 92.5066 26.2994 93.1247 26.5652C93.5279 26.7503 93.8908 27.0186 94.1915 27.354C94.5046 27.7085 94.748 28.1234 94.9081 28.5753C95.085 29.0868 95.176 29.6262 95.1768 30.1699C95.1751 30.7294 95.0871 31.2849 94.9162 31.8153C94.7529 32.2681 94.5099 32.6852 94.1996 33.0451C93.9019 33.3781 93.5415 33.6437 93.141 33.8254C92.7317 34.007 92.2911 34.0994 91.8463 34.0968V34.1392ZM105.95 36.5735C106.605 36.583 107.258 36.4945 107.888 36.3105C108.45 36.1379 108.98 35.8715 109.46 35.5217C109.924 35.1823 110.343 34.7802 110.706 34.3258L109.142 32.8755C108.856 33.1727 108.542 33.4398 108.206 33.6728C107.888 33.8849 107.542 34.0477 107.18 34.1562C106.793 34.2718 106.393 34.329 105.991 34.3258C105.462 34.3156 104.941 34.1823 104.468 33.9357C103.986 33.7107 103.568 33.3602 103.255 32.9179C102.926 32.4101 102.717 31.829 102.644 31.2216H111.194C111.194 31.1707 111.194 31.1028 111.194 31.0011C111.194 30.8993 111.194 30.7975 111.194 30.6957V30.4413C111.197 29.7646 111.123 29.0899 110.974 28.4312C110.832 27.8042 110.604 27.2016 110.298 26.6416C110.01 26.102 109.632 25.6197 109.183 25.2167C108.727 24.8001 108.199 24.4777 107.628 24.2667C106.983 24.0347 106.306 23.9199 105.624 23.9275C104.859 23.9194 104.1 24.08 103.399 24.3986C102.697 24.7173 102.068 25.1868 101.553 25.7764C101.046 26.3778 100.653 27.0744 100.396 27.829C99.8162 29.4539 99.8162 31.242 100.396 32.867C100.677 33.6125 101.103 34.2895 101.647 34.8558C102.19 35.4221 102.84 35.8653 103.556 36.1579C104.307 36.4606 105.104 36.6159 105.909 36.6159L105.95 36.5735ZM102.62 29.3896C102.686 28.7931 102.866 28.2165 103.149 27.6933C103.397 27.2348 103.753 26.8496 104.183 26.5737C104.633 26.3019 105.145 26.1588 105.665 26.1588C106.186 26.1588 106.697 26.3019 107.147 26.5737C107.57 26.8565 107.913 27.2518 108.141 27.7187C108.391 28.2231 108.546 28.7731 108.597 29.3387L102.62 29.3896ZM119.305 36.5735C119.978 36.5793 120.647 36.4793 121.292 36.2766C121.839 36.0956 122.355 35.8266 122.822 35.4793C123.277 35.1366 123.692 34.7411 124.06 34.3004L122.432 32.6465C122.164 32.9391 121.87 33.2033 121.552 33.4353C120.932 33.9114 120.181 34.1672 119.411 34.1647C118.926 34.1627 118.447 34.0589 118.002 33.8594C117.584 33.6579 117.209 33.3692 116.902 33.0112C116.589 32.6508 116.345 32.2302 116.186 31.7729C116.013 31.2871 115.928 30.7726 115.933 30.2547C115.929 29.7376 116.012 29.2238 116.178 28.7365C116.333 28.2782 116.57 27.855 116.878 27.4897C117.169 27.1317 117.53 26.8425 117.937 26.6416C118.356 26.435 118.816 26.3306 119.28 26.3362C119.687 26.3272 120.092 26.3933 120.477 26.5313C120.828 26.6498 121.158 26.8275 121.454 27.0571C121.748 27.2936 122.021 27.5576 122.269 27.8459L123.897 25.9885C123.541 25.5732 123.136 25.2057 122.692 24.8944C122.232 24.5725 121.726 24.3265 121.194 24.1649C120.56 23.9838 119.905 23.8953 119.248 23.902C118.409 23.894 117.578 24.0643 116.805 24.4024C116.087 24.7222 115.439 25.1895 114.899 25.7764C114.393 26.3785 114.001 27.0749 113.743 27.829C113.135 29.4046 113.135 31.1642 113.743 32.7398C114.035 33.4838 114.461 34.1631 114.997 34.7414C115.541 35.3169 116.188 35.7752 116.902 36.09C117.676 36.4254 118.507 36.5956 119.345 36.5904L119.305 36.5735ZM130.412 36.5056C130.857 36.51 131.3 36.4529 131.731 36.336C132.11 36.2372 132.474 36.0861 132.814 35.8864V33.6134C132.555 33.7468 132.281 33.8492 132 33.9187C131.733 33.9849 131.46 34.019 131.185 34.0205C130.802 34.0536 130.422 33.9287 130.127 33.6728C129.992 33.516 129.888 33.332 129.824 33.1322C129.76 32.9323 129.735 32.7208 129.752 32.5108V26.5737H132.879V24.1819H129.712V20.8486H127.057V24.1734H125.583V26.5652H127.057V32.9179C127.031 33.6464 127.182 34.37 127.497 35.0213C127.755 35.5235 128.168 35.9207 128.669 36.1494C129.223 36.3798 129.816 36.4923 130.412 36.4802V36.5056ZM135.542 36.2936H138.213V31.6796C138.189 30.761 138.361 29.8484 138.718 29.0079C139.017 28.3421 139.502 27.7862 140.11 27.4134C140.744 27.0531 141.457 26.8718 142.179 26.8875H142.333V23.9444C141.709 23.9073 141.085 24.0205 140.509 24.2752C139.99 24.503 139.526 24.8477 139.149 25.2845C138.755 25.7588 138.439 26.2975 138.213 26.879V24.148H135.542V36.3105V36.2936ZM148.652 36.548C149.193 36.5592 149.73 36.4583 150.232 36.2512C150.667 36.0703 151.067 35.8088 151.413 35.4793C151.747 35.1618 152.042 34.8029 152.292 34.4107V36.3105H154.955V24.1734H152.292V31.018C152.303 31.5759 152.186 32.1284 151.95 32.6295C151.75 33.06 151.433 33.4198 151.038 33.6643C150.62 33.9066 150.148 34.0295 149.67 34.0205C149.328 34.0409 148.985 33.9823 148.667 33.8489C148.349 33.7155 148.063 33.5105 147.83 33.2487C147.361 32.6277 147.129 31.8485 147.178 31.0604V24.1734H144.516V31.8916C144.496 32.7396 144.663 33.5809 145.004 34.3513C145.308 35.0234 145.799 35.5848 146.413 35.9628C147.093 36.3701 147.868 36.5727 148.652 36.548ZM158.31 36.2936H160.973V29.5083C160.958 28.9474 161.067 28.3905 161.29 27.8799C161.476 27.4524 161.779 27.0921 162.162 26.8451C162.554 26.5956 163.005 26.4663 163.465 26.4719C163.79 26.458 164.114 26.5193 164.414 26.6512C164.714 26.7832 164.982 26.9827 165.199 27.2353C165.646 27.8629 165.865 28.6351 165.818 29.415V36.3105H168.489V29.4744C168.466 28.8909 168.575 28.3098 168.806 27.7781C168.998 27.3588 169.304 27.0077 169.686 26.7688C170.079 26.533 170.527 26.4128 170.981 26.421C171.306 26.4053 171.631 26.4658 171.931 26.5978C172.231 26.7299 172.499 26.9303 172.715 27.1844C173.166 27.8165 173.385 28.5955 173.334 29.3811V36.3105H175.997V28.5753C176.026 27.6992 175.859 26.828 175.508 26.0309C175.211 25.3658 174.721 24.8143 174.108 24.4533C173.439 24.0748 172.686 23.8875 171.925 23.9105C171.372 23.9024 170.821 23.9913 170.297 24.1734C169.827 24.3436 169.389 24.5961 169.002 24.9198C168.603 25.2431 168.248 25.6195 167.943 26.0394C167.739 25.618 167.463 25.2387 167.129 24.9198C166.793 24.5965 166.4 24.3432 165.973 24.1734C165.489 23.9949 164.979 23.9059 164.466 23.9105C163.936 23.8994 163.41 24.0004 162.919 24.2074C162.496 24.3936 162.108 24.6548 161.771 24.9792C161.466 25.2876 161.193 25.6288 160.956 25.997V24.1565H158.294V36.3105L158.31 36.2936Z" fill="black"/>
<defs>
<filter id="filter0_f_1939_111" x="-13.8648" y="-18.0219" width="61.1246" height="61.1246" filterUnits="userSpaceOnUse" color-interpolation-filters="sRGB">
<feFlood flood-opacity="0" result="BackgroundImageFix"/>
<feBlend mode="normal" in="SourceGraphic" in2="BackgroundImageFix" result="shape"/>
<feGaussianBlur stdDeviation="6.93242" result="effect1_foregroundBlur_1939_111"/>
</filter>
<filter id="filter1_f_1939_111" x="5.74246" y="-18.0219" width="61.1246" height="61.1246" filterUnits="userSpaceOnUse" color-interpolation-filters="sRGB">
<feFlood flood-opacity="0" result="BackgroundImageFix"/>
<feBlend mode="normal" in="SourceGraphic" in2="BackgroundImageFix" result="shape"/>
<feGaussianBlur stdDeviation="6.93242" result="effect1_foregroundBlur_1939_111"/>
</filter>
<filter id="filter2_f_1939_111" x="21.6776" y="-5.13503" width="61.1246" height="61.1246" filterUnits="userSpaceOnUse" color-interpolation-filters="sRGB">
<feFlood flood-opacity="0" result="BackgroundImageFix"/>
<feBlend mode="normal" in="SourceGraphic" in2="BackgroundImageFix" result="shape"/>
<feGaussianBlur stdDeviation="6.93242" result="effect1_foregroundBlur_1939_111"/>
</filter>
<filter id="filter3_f_1939_111" x="25.0726" y="14.8187" width="61.1246" height="61.1246" filterUnits="userSpaceOnUse" color-interpolation-filters="sRGB">
<feFlood flood-opacity="0" result="BackgroundImageFix"/>
<feBlend mode="normal" in="SourceGraphic" in2="BackgroundImageFix" result="shape"/>
<feGaussianBlur stdDeviation="6.93242" result="effect1_foregroundBlur_1939_111"/>
</filter>
<filter id="filter4_f_1939_111" x="4.56442" y="21.7472" width="61.1246" height="61.1246" filterUnits="userSpaceOnUse" color-interpolation-filters="sRGB">
<feFlood flood-opacity="0" result="BackgroundImageFix"/>
<feBlend mode="normal" in="SourceGraphic" in2="BackgroundImageFix" result="shape"/>
<feGaussianBlur stdDeviation="6.93242" result="effect1_foregroundBlur_1939_111"/>
</filter>
<filter id="filter5_f_1939_111" x="-9.01462" y="25.0728" width="61.5403" height="55.3047" filterUnits="userSpaceOnUse" color-interpolation-filters="sRGB">
<feFlood flood-opacity="0" result="BackgroundImageFix"/>
<feBlend mode="normal" in="SourceGraphic" in2="BackgroundImageFix" result="shape"/>
<feGaussianBlur stdDeviation="6.93242" result="effect1_foregroundBlur_1939_111"/>
</filter>
<filter id="filter6_f_1939_111" x="-25.366" y="8.92958" width="61.1246" height="61.1246" filterUnits="userSpaceOnUse" color-interpolation-filters="sRGB">
<feFlood flood-opacity="0" result="BackgroundImageFix"/>
<feBlend mode="normal" in="SourceGraphic" in2="BackgroundImageFix" result="shape"/>
<feGaussianBlur stdDeviation="6.93242" result="effect1_foregroundBlur_1939_111"/>
</filter>
<filter id="filter7_f_1939_111" x="-22.8718" y="-2.84863" width="61.1246" height="52.8105" filterUnits="userSpaceOnUse" color-interpolation-filters="sRGB">
<feFlood flood-opacity="0" result="BackgroundImageFix"/>
<feBlend mode="normal" in="SourceGraphic" in2="BackgroundImageFix" result="shape"/>
<feGaussianBlur stdDeviation="6.93242" result="effect1_foregroundBlur_1939_111"/>
</filter>
<filter id="filter8_f_1939_111" x="-22.8718" y="-12.5485" width="61.1246" height="52.8105" filterUnits="userSpaceOnUse" color-interpolation-filters="sRGB">
<feFlood flood-opacity="0" result="BackgroundImageFix"/>
<feBlend mode="normal" in="SourceGraphic" in2="BackgroundImageFix" result="shape"/>
<feGaussianBlur stdDeviation="6.93242" result="effect1_foregroundBlur_1939_111"/>
</filter>
<linearGradient id="paint0_linear_1939_111" x1="22.5175" y1="37.5173" x2="28.9262" y2="47.7367" gradientUnits="userSpaceOnUse">
<stop stop-color="#139DC1"/>
<stop offset="1" stop-color="#105E65"/>
</linearGradient>
<linearGradient id="paint1_linear_1939_111" x1="40.6006" y1="34.5034" x2="30.3812" y2="47.0092" gradientUnits="userSpaceOnUse">
<stop stop-color="#F9892F"/>
<stop offset="0.48" stop-color="#FFC734"/>
<stop offset="1" stop-color="#FFEF52"/>
</linearGradient>
<linearGradient id="paint2_linear_1939_111" x1="30.7969" y1="40.1501" x2="34.8154" y2="26.7089" gradientUnits="userSpaceOnUse">
<stop stop-color="#FFEF52"/>
<stop offset="1" stop-color="#FDBF44"/>
</linearGradient>
<linearGradient id="paint3_linear_1939_111" x1="21.2703" y1="30.866" x2="30.0001" y2="39.4226" gradientUnits="userSpaceOnUse">
<stop stop-color="#156854"/>
<stop offset="1" stop-color="#153F3D"/>
</linearGradient>
<linearGradient id="paint4_linear_1939_111" x1="31.074" y1="12.2632" x2="38.9724" y2="29.9999" gradientUnits="userSpaceOnUse">
<stop stop-color="#A526CF"/>
<stop offset="0.46" stop-color="#D42AB0"/>
<stop offset="1" stop-color="#F6312B"/>
</linearGradient>
<linearGradient id="paint5_linear_1939_111" x1="28.4759" y1="9.00687" x2="27.402" y2="27.3671" gradientUnits="userSpaceOnUse">
<stop stop-color="#159471"/>
<stop offset="1" stop-color="#21BB75"/>
</linearGradient>
<linearGradient id="paint6_linear_1939_111" x1="22.5175" y1="37.5173" x2="28.9262" y2="47.7367" gradientUnits="userSpaceOnUse">
<stop stop-color="#139DC1"/>
<stop offset="1" stop-color="#105E65"/>
</linearGradient>
<linearGradient id="paint7_linear_1939_111" x1="40.6006" y1="34.5034" x2="30.3812" y2="47.0092" gradientUnits="userSpaceOnUse">
<stop stop-color="#F9892F"/>
<stop offset="0.48" stop-color="#FFC734"/>
<stop offset="1" stop-color="#FFEF52"/>
</linearGradient>
<linearGradient id="paint8_linear_1939_111" x1="30.7969" y1="40.1501" x2="34.8154" y2="26.7089" gradientUnits="userSpaceOnUse">
<stop stop-color="#FFEF52"/>
<stop offset="1" stop-color="#FDBF44"/>
</linearGradient>
<linearGradient id="paint9_linear_1939_111" x1="21.2703" y1="30.866" x2="30.0001" y2="39.4226" gradientUnits="userSpaceOnUse">
<stop stop-color="#156854"/>
<stop offset="1" stop-color="#153F3D"/>
</linearGradient>
<linearGradient id="paint10_linear_1939_111" x1="31.074" y1="12.2632" x2="38.9724" y2="29.9999" gradientUnits="userSpaceOnUse">
<stop stop-color="#A526CF"/>
<stop offset="0.46" stop-color="#D42AB0"/>
<stop offset="1" stop-color="#F6312B"/>
</linearGradient>
<linearGradient id="paint11_linear_1939_111" x1="28.4759" y1="9.00687" x2="27.402" y2="27.3671" gradientUnits="userSpaceOnUse">
<stop stop-color="#159471"/>
<stop offset="1" stop-color="#21BB75"/>
</linearGradient>
</defs>
</svg>
