<svg width="50" height="50" viewBox="0 0 50 50" fill="none" xmlns="http://www.w3.org/2000/svg">
<path d="M16.425 9.8C15.0555 9.8 13.95 10.872 13.95 12.2C13.95 13.528 15.0555 14.6 16.425 14.6C17.7945 14.6 18.9 13.528 18.9 12.2C18.9 10.872 17.7945 9.8 16.425 9.8ZM16.425 9.8C15.0555 9.8 13.95 10.872 13.95 12.2C13.95 13.528 15.0555 14.6 16.425 14.6C17.7945 14.6 18.9 13.528 18.9 12.2C18.9 10.872 17.7945 9.8 16.425 9.8ZM41.0265 20.328L26.1765 5.928C25.566 5.336 24.7245 5 23.85 5H12.3C10.485 5 9 6.44 9 8.2V19.4C9 20.248 9.3465 21.064 9.9735 21.672L10.65 22.312C11.706 21.704 12.8775 21.304 14.082 21.128L12.3 19.4V8.2H23.85L38.7 22.6L27.15 33.8L25.368 32.072C25.203 33.256 24.774 34.376 24.147 35.4L24.8235 36.056C25.434 36.664 26.2755 37 27.15 37C28.0245 37 28.866 36.664 29.4765 36.056L41.0265 24.856C41.6535 24.264 42 23.448 42 22.6C42 21.752 41.6535 20.936 41.0265 20.328ZM16.425 9.8C15.0555 9.8 13.95 10.872 13.95 12.2C13.95 13.528 15.0555 14.6 16.425 14.6C17.7945 14.6 18.9 13.528 18.9 12.2C18.9 10.872 17.7945 9.8 16.425 9.8ZM18.9 30.6V24.2H15.6V30.6H12.3L17.25 35.4L22.2 30.6H18.9Z" fill="#2A37B0"/>
</svg>
