<svg width="48" height="48" viewBox="0 0 48 48" fill="none" xmlns="http://www.w3.org/2000/svg">
<path d="M18.0001 18.0005L22.0004 22L30.0001 14" stroke="#43494E" stroke-width="3" stroke-linecap="round" stroke-linejoin="round"/>
<path d="M24.0001 37L25.6621 36.2819C29.147 34.7866 32.1562 32.3663 34.364 29.2833C36.5717 26.2003 37.8937 22.572 38.1868 18.7914L38.9992 8.36475C39.0125 7.93295 38.8771 7.50969 38.6156 7.16575C38.3542 6.82182 37.9826 6.57807 37.563 6.47525L24.0001 3L10.4372 6.4C10.0178 6.50278 9.6463 6.7464 9.38488 7.09015C9.12346 7.43389 8.98795 7.85694 9.00098 8.28859L9.81341 18.7153C10.1064 22.496 11.4283 26.1244 13.636 29.2077C15.8438 32.2909 18.8531 34.7113 22.3381 36.2067L24.0001 37Z" stroke="#2A37B0" stroke-width="3" stroke-linecap="round" stroke-linejoin="round"/>
</svg>
