<svg width="48" height="48" viewBox="0 0 48 48" fill="none" xmlns="http://www.w3.org/2000/svg">
<path d="M8 12.4C8 10.7026 8.67428 9.07475 9.87452 7.87452C11.0747 6.67428 12.7026 6 14.4 6H33.6C35.2974 6 36.9252 6.67428 38.1255 7.87452C39.3257 9.07475 40 10.7026 40 12.4V31.6C40 33.2974 39.3257 34.9252 38.1255 36.1255C36.9252 37.3257 35.2974 38 33.6 38H14.4C12.7026 38 11.0747 37.3257 9.87452 36.1255C8.67428 34.9252 8 33.2974 8 31.6V12.4ZM11.2 31.4976V31.6C11.2 32.4487 11.5371 33.2626 12.1373 33.8627C12.7374 34.4629 13.5513 34.8 14.4 34.8H33.6C34.4487 34.8 35.2626 34.4629 35.8627 33.8627C36.4629 33.2626 36.8 32.4487 36.8 31.6V31.4976C34.6247 31.2416 32.6158 30.206 31.1456 28.5824C29.536 26.8224 28.5984 24.5568 27.8912 22.528C27.6672 21.888 27.4635 21.2832 27.28 20.7136C26.832 19.3568 26.448 18.1984 25.952 17.2352C25.2928 15.952 24.7168 15.6 24 15.6C23.2832 15.6 22.7072 15.952 22.048 17.232C21.5488 18.1984 21.168 19.3568 20.72 20.7136C20.5365 21.2832 20.3339 21.888 20.112 22.528C19.4016 24.5568 18.464 26.8256 16.8544 28.5824C15.3837 30.2048 13.3749 31.2393 11.2 31.4944M36.8 28.2528V12.4C36.8 11.5513 36.4629 10.7374 35.8627 10.1373C35.2626 9.53714 34.4487 9.2 33.6 9.2H14.4C13.5513 9.2 12.7374 9.53714 12.1373 10.1373C11.5371 10.7374 11.2 11.5513 11.2 12.4V28.256C12.6624 27.9744 13.6928 27.296 14.496 26.4192C15.6352 25.1744 16.4 23.4432 17.088 21.472C17.2565 20.9877 17.4251 20.4864 17.5936 19.968C18.0736 18.5088 18.5792 16.9696 19.2032 15.7664C20.096 14.048 21.5168 12.4 24 12.4C26.4832 12.4 27.9072 14.048 28.7968 15.7664C29.4208 16.9696 29.9264 18.5088 30.4064 19.968C30.5771 20.4864 30.7445 20.9877 30.9088 21.472C31.6 23.4432 32.3648 25.1744 33.504 26.4192C34.3072 27.296 35.3408 27.9712 36.8 28.2528Z" fill="#2A37B0"/>
</svg>
