<svg width="38" height="38" viewBox="0 0 38 38" fill="none" xmlns="http://www.w3.org/2000/svg">
<path d="M19 34.8728C18.5778 34.8728 18.1751 34.7936 17.7919 34.6353C17.4087 34.477 17.0594 34.2527 16.7437 33.9624L4.03749 21.2561C3.74721 20.9395 3.52291 20.5895 3.36458 20.2064C3.20624 19.8232 3.12708 19.421 3.12708 18.9999C3.12708 18.5787 3.20624 18.1697 3.36458 17.7728C3.52291 17.3759 3.74721 17.0329 4.03749 16.7436L16.7437 4.03738C17.0604 3.72071 17.4103 3.48955 17.7935 3.34388C18.1767 3.19821 18.5788 3.12591 19 3.12696C19.4212 3.12802 19.8302 3.20085 20.2271 3.34546C20.624 3.49008 20.967 3.72071 21.2562 4.03738L33.9625 16.7436C34.2792 17.0339 34.5103 17.377 34.656 17.7728C34.8017 18.1686 34.874 18.5777 34.8729 18.9999C34.8719 19.4221 34.7995 19.8248 34.656 20.208C34.5124 20.5911 34.2813 20.9405 33.9625 21.2561L21.2562 33.9624C20.966 34.2527 20.6229 34.477 20.2271 34.6353C19.8312 34.7936 19.4222 34.8728 19 34.8728ZM19 31.7061L31.7062 18.9999L19 6.29363L6.29374 18.9999L19 31.7061ZM17.4167 20.5832H20.5833V11.0832H17.4167V20.5832ZM19 25.3332C19.4486 25.3332 19.8249 25.1812 20.1289 24.8772C20.4329 24.5732 20.5844 24.1974 20.5833 23.7499C20.5823 23.3023 20.4303 22.9265 20.1273 22.6225C19.8244 22.3185 19.4486 22.1665 19 22.1665C18.5514 22.1665 18.1756 22.3185 17.8727 22.6225C17.5697 22.9265 17.4177 23.3023 17.4167 23.7499C17.4156 24.1974 17.5676 24.5737 17.8727 24.8788C18.1777 25.1839 18.5535 25.3353 19 25.3332Z" fill="#2A37B0"/>
</svg>
