<svg width="53" height="53" viewBox="0 0 53 53" fill="none" xmlns="http://www.w3.org/2000/svg">
<path d="M26.5001 38C27.0076 38 27.477 37.7648 28.4177 37.2926L35.9794 33.5074C39.3271 31.8315 41.0001 30.9926 41.0001 29.6667V13M26.5001 38C25.9926 38 25.5231 37.7648 24.5824 37.2926L17.0207 33.5074C13.673 31.8315 12.0001 30.9926 12.0001 29.6667V13M26.5001 38V21.3333" stroke="#2A37B0" stroke-width="3" stroke-linecap="round" stroke-linejoin="round"/>
<path d="M24.5824 5.72156C25.5249 5.23989 25.9944 5 26.5001 5C27.0076 5 27.477 5.23989 28.4177 5.72156L35.9794 9.58244C39.3271 11.2919 41.0001 12.1476 41.0001 13.5C41.0001 14.8524 39.3271 15.7081 35.9794 17.4176L28.4177 21.2784C27.4752 21.7601 27.0057 22 26.5001 22C25.9926 22 25.5231 21.7601 24.5824 21.2784L17.0207 17.4176C13.673 15.7081 12.0001 14.8524 12.0001 13.5C12.0001 12.1476 13.673 11.2919 17.0207 9.58244L24.5824 5.72156Z" stroke="#2A37B0" stroke-width="3" stroke-linecap="round" stroke-linejoin="round"/>
</svg>
