<svg width="48" height="48" viewBox="0 0 48 48" fill="none" xmlns="http://www.w3.org/2000/svg">
<path d="M18.3125 36H30.6875M24.5 24V36M18.3125 14H30.6875M8 8C8 6.93913 8.4346 5.92172 9.20818 5.17157C9.98177 4.42143 11.031 4 12.125 4H36.875C37.969 4 39.0182 4.42143 39.7918 5.17157C40.5654 5.92172 41 6.93913 41 8V20C41 21.0609 40.5654 22.0783 39.7918 22.8284C39.0182 23.5786 37.969 24 36.875 24H12.125C11.031 24 9.98177 23.5786 9.20818 22.8284C8.4346 22.0783 8 21.0609 8 20V8Z" stroke="#2A37B0" stroke-width="3" stroke-linecap="round" stroke-linejoin="round"/>
</svg>
